<?xml version="1.0" encoding="iso-8859-1"?>
<!-- Generator: Adobe Illustrator 19.0.0, SVG Export Plug-In . SVG Version: 6.00 Build 0)  -->
<svg version="1.1" id="Capa_1" xmlns="http://www.w3.org/2000/svg" xmlns:xlink="http://www.w3.org/1999/xlink" x="0px" y="0px"
	 viewBox="0 0 512.042 512.042" style="enable-background:new 0 0 512.042 512.042;" xml:space="preserve">
<path style="fill:#0277BD;" d="M415.591,476.992c-0.469-1.6-11.584-39.424-21.653-64.917c-1.177-3.081-3.713-5.443-6.869-6.4
	c-3.13-0.967-6.532-0.415-9.195,1.493c-14.47,9.945-33.098,11.565-49.067,4.267c-13.387-7.794-20.992-22.687-19.456-38.101V234.667
	h74.667c5.891,0,10.667-4.776,10.667-10.667v-85.333c0-5.891-4.776-10.667-10.667-10.667h-74.667V10.667
	C309.351,4.776,304.576,0,298.685,0h-85.333c-5.891,0-10.667,4.776-10.667,10.667c0,79.36-50.688,138.667-96,138.667
	c-5.891,0-10.667,4.776-10.667,10.667v64c0,5.891,4.776,10.667,10.667,10.667h74.667v160c0,74.667,46.656,117.333,128,117.333
	c35.102,0.688,69.852-7.114,101.291-22.741C414.934,486.81,416.982,481.734,415.591,476.992z"/>
<g>
</g>
<g>
</g>
<g>
</g>
<g>
</g>
<g>
</g>
<g>
</g>
<g>
</g>
<g>
</g>
<g>
</g>
<g>
</g>
<g>
</g>
<g>
</g>
<g>
</g>
<g>
</g>
<g>
</g>
</svg>
