<?xml version="1.0" encoding="iso-8859-1"?>
<!-- Generator: Adobe Illustrator 19.0.0, SVG Export Plug-In . SVG Version: 6.00 Build 0)  -->
<svg version="1.1" id="Capa_1" xmlns="http://www.w3.org/2000/svg" xmlns:xlink="http://www.w3.org/1999/xlink" x="0px" y="0px"
	 viewBox="0 0 512 512" style="enable-background:new 0 0 512 512;" xml:space="preserve">
<path style="fill:#4CAF50;" d="M416,74.667v-64C416,4.776,411.224,0,405.333,0h-74.667c-4.037,0-7.728,2.279-9.536,5.888
	l-39.723,79.445H106.667C100.776,85.333,96,90.109,96,96v128c0,5.891,4.776,10.667,10.667,10.667h98.389L97.323,432.235
	c-0.86,1.562-1.315,3.315-1.323,5.099v64c0,5.891,4.776,10.667,10.667,10.667h74.667c4.037,0,7.728-2.279,9.536-5.888l39.723-79.445
	h174.741c5.891,0,10.667-4.776,10.667-10.667V288c0-5.891-4.776-10.667-10.667-10.667h-98.389L414.699,79.765
	C415.561,78.205,416.009,76.45,416,74.667z"/>
<g>
</g>
<g>
</g>
<g>
</g>
<g>
</g>
<g>
</g>
<g>
</g>
<g>
</g>
<g>
</g>
<g>
</g>
<g>
</g>
<g>
</g>
<g>
</g>
<g>
</g>
<g>
</g>
<g>
</g>
</svg>
